<svg width="80" height="80" viewBox="0 0 80 80" fill="none" xmlns="http://www.w3.org/2000/svg">
  <line x1="40" y1="6" x2="40" y2="18" stroke="#c9a96e"/>
  <line x1="40" y1="62" x2="40" y2="74" stroke="#c9a96e"/>
  <line x1="6" y1="40" x2="18" y2="40" stroke="#c9a96e"/>
  <line x1="62" y1="40" x2="74" y2="40" stroke="#c9a96e"/>
  <line x1="14" y1="14" x2="22" y2="22" stroke="#c9a96e"/>
  <line x1="58" y1="58" x2="66" y2="66" stroke="#c9a96e"/>
  <line x1="66" y1="14" x2="58" y2="22" stroke="#c9a96e"/>
  <line x1="22" y1="58" x2="14" y2="66" stroke="#c9a96e"/>
  <path d="M12 40 C22 24 58 24 68 40 C58 56 22 56 12 40 Z" stroke="#c9a96e" fill="none"/>
  <circle cx="40" cy="40" r="11" stroke="#c9a96e" fill="none"/>
  <circle cx="40" cy="40" r="5.5" fill="#c9a96e"/>
  <circle cx="40" cy="40" r="2" fill="#c9a96e"/>
  <circle cx="40" cy="25" r="1.2" fill="#c9a96e"/>
  <circle cx="40" cy="55" r="1.2" fill="#c9a96e"/>
  <circle cx="25" cy="40" r="1.2" fill="#c9a96e"/>
  <circle cx="55" cy="40" r="1.2" fill="#c9a96e"/>
</svg>
