<svg style="display:none" xmlns="http://www.w3.org/2000/svg">
  <symbol id="icon-chevron" viewBox="0 0 24 24">
    <polyline points="9,6 15,12 9,18" stroke="#c9a96e" stroke-width="1.4" fill="none"
      stroke-linecap="round" stroke-linejoin="round"/>
  </symbol>
  <symbol id="planet-sun" viewBox="0 0 24 24">
    <circle cx="12" cy="12" r="6.5" stroke="#c9a96e" stroke-width="1.2" fill="none"/>
    <circle cx="12" cy="12" r="2" fill="#c9a96e"/>
  </symbol>
  <symbol id="planet-moon" viewBox="0 0 24 24">
    <path d="M14 4 C9 5 6 8 6 12 C6 16 9 19 14 20 C10 19 8 16 8 12 C8 8 10 5 14 4Z"
      fill="#c9a96e" fill-opacity="0.85"/>
  </symbol>
  <symbol id="planet-mercury" viewBox="0 0 24 24">
    <circle cx="12" cy="13" r="4.5" stroke="#c9a96e" stroke-width="1.2" fill="none"/>
    <line x1="12" y1="17.5" x2="12" y2="21" stroke="#c9a96e" stroke-width="1.2" stroke-linecap="round"/>
    <line x1="9.5" y1="19" x2="14.5" y2="19" stroke="#c9a96e" stroke-width="1.2" stroke-linecap="round"/>
    <path d="M9 9.5 Q9 6 12 5.5 Q15 6 15 9.5" stroke="#c9a96e" stroke-width="1.2" fill="none"
      stroke-linecap="round"/>
  </symbol>
  <symbol id="planet-venus" viewBox="0 0 24 24">
    <circle cx="12" cy="10" r="5.5" stroke="#c9a96e" stroke-width="1.2" fill="none"/>
    <line x1="12" y1="15.5" x2="12" y2="21" stroke="#c9a96e" stroke-width="1.2" stroke-linecap="round"/>
    <line x1="9" y1="18" x2="15" y2="18" stroke="#c9a96e" stroke-width="1.2" stroke-linecap="round"/>
  </symbol>
  <symbol id="planet-mars" viewBox="0 0 24 24">
    <circle cx="10" cy="14" r="5.5" stroke="#c9a96e" stroke-width="1.2" fill="none"/>
    <line x1="14" y1="10" x2="20" y2="4" stroke="#c9a96e" stroke-width="1.2" stroke-linecap="round"/>
    <polyline points="14,4 20,4 20,10" stroke="#c9a96e" stroke-width="1.2" fill="none"
      stroke-linecap="round" stroke-linejoin="round"/>
  </symbol>
  <symbol id="planet-jupiter" viewBox="0 0 24 24">
    <path d="M17 5 L8 15 L21 15" stroke="#c9a96e" stroke-width="1.2" fill="none"
      stroke-linecap="round" stroke-linejoin="round"/>
    <line x1="15" y1="10" x2="15" y2="21" stroke="#c9a96e" stroke-width="1.2" stroke-linecap="round"/>
  </symbol>
  <symbol id="planet-saturn" viewBox="0 0 24 24">
    <line x1="14" y1="4" x2="14" y2="20" stroke="#c9a96e" stroke-width="1.2" stroke-linecap="round"/>
    <line x1="9" y1="9" x2="17" y2="9" stroke="#c9a96e" stroke-width="1.2" stroke-linecap="round"/>
    <path d="M9 9 Q7 9 7 13 Q7 17 11 17" stroke="#c9a96e" stroke-width="1.2" fill="none"
      stroke-linecap="round"/>
  </symbol>
  <symbol id="planet-uranus" viewBox="0 0 24 24">
    <line x1="7" y1="5" x2="7" y2="19" stroke="#c9a96e" stroke-width="1.2" stroke-linecap="round"/>
    <line x1="17" y1="5" x2="17" y2="19" stroke="#c9a96e" stroke-width="1.2" stroke-linecap="round"/>
    <line x1="7" y1="12" x2="17" y2="12" stroke="#c9a96e" stroke-width="1.2" stroke-linecap="round"/>
    <circle cx="12" cy="12" r="3" stroke="#c9a96e" stroke-width="0.9" fill="none" opacity="0.75"/>
  </symbol>
  <symbol id="planet-neptune" viewBox="0 0 24 24">
    <line x1="12" y1="12" x2="12" y2="21" stroke="#c9a96e" stroke-width="1.2" stroke-linecap="round"/>
    <line x1="5" y1="16" x2="19" y2="16" stroke="#c9a96e" stroke-width="1.2" stroke-linecap="round"/>
    <path d="M5 16 L5 10 Q5 5 9 4" stroke="#c9a96e" stroke-width="1.2" fill="none"
      stroke-linecap="round"/>
    <line x1="12" y1="12" x2="12" y2="4" stroke="#c9a96e" stroke-width="1.2" stroke-linecap="round"/>
    <path d="M19 16 L19 10 Q19 5 15 4" stroke="#c9a96e" stroke-width="1.2" fill="none"
      stroke-linecap="round"/>
  </symbol>
  <symbol id="planet-pluto" viewBox="0 0 24 24">
    <circle cx="12" cy="8.5" r="3.5" stroke="#c9a96e" stroke-width="1.2" fill="none"/>
    <path d="M8.5 12 Q8.5 17 12 17 Q15.5 17 15.5 12" stroke="#c9a96e" stroke-width="1.2"
      fill="none" stroke-linecap="round"/>
    <line x1="12" y1="17" x2="12" y2="21" stroke="#c9a96e" stroke-width="1.2" stroke-linecap="round"/>
    <line x1="9" y1="19.5" x2="15" y2="19.5" stroke="#c9a96e" stroke-width="1.2"
      stroke-linecap="round"/>
  </symbol>
  <symbol id="sign-aries" viewBox="0 0 24 24">
    <path d="M12 20 L12 12 Q12 6 7 4 Q4 3.5 4 7" stroke="#c9a96e" stroke-width="1.2"
      fill="none" stroke-linecap="round"/>
    <path d="M12 12 Q12 6 17 4 Q20 3.5 20 7" stroke="#c9a96e" stroke-width="1.2"
      fill="none" stroke-linecap="round"/>
  </symbol>
  <symbol id="sign-taurus" viewBox="0 0 24 24">
    <circle cx="12" cy="15" r="5.5" stroke="#c9a96e" stroke-width="1.2" fill="none"/>
    <path d="M6.5 10 Q5 6 6 3" stroke="#c9a96e" stroke-width="1.2" fill="none" stroke-linecap="round"/>
    <path d="M6.5 10 Q12 8.5 17.5 10" stroke="#c9a96e" stroke-width="1.2" fill="none"
      stroke-linecap="round"/>
    <path d="M17.5 10 Q19 6 18 3" stroke="#c9a96e" stroke-width="1.2" fill="none"
      stroke-linecap="round"/>
  </symbol>
  <symbol id="sign-gemini" viewBox="0 0 24 24">
    <line x1="9" y1="6" x2="9" y2="18" stroke="#c9a96e" stroke-width="1.2" stroke-linecap="round"/>
    <line x1="15" y1="6" x2="15" y2="18" stroke="#c9a96e" stroke-width="1.2" stroke-linecap="round"/>
    <path d="M5 6 Q9 8 12 6 Q15 4 19 6" stroke="#c9a96e" stroke-width="1.2" fill="none"
      stroke-linecap="round"/>
    <path d="M5 18 Q9 16 12 18 Q15 20 19 18" stroke="#c9a96e" stroke-width="1.2" fill="none"
      stroke-linecap="round"/>
  </symbol>
  <symbol id="sign-cancer" viewBox="0 0 24 24">
    <path d="M7 9 Q7 4 12 4 Q17 4 17 9 Q17 14 12 14 Q9 14 8 11"
      stroke="#c9a96e" stroke-width="1.2" fill="none" stroke-linecap="round"/>
    <path d="M17 15 Q17 20 12 20 Q7 20 7 15 Q7 10 12 10 Q15 10 16 13"
      stroke="#c9a96e" stroke-width="1.2" fill="none" stroke-linecap="round"/>
  </symbol>
  <symbol id="sign-leo" viewBox="0 0 24 24">
    <circle cx="9" cy="10" r="4.5" stroke="#c9a96e" stroke-width="1.2" fill="none"/>
    <path d="M13 12 Q17 12 18 16 Q19 20 16 21 Q13 22 12 20"
      stroke="#c9a96e" stroke-width="1.2" fill="none" stroke-linecap="round"/>
  </symbol>
  <symbol id="sign-virgo" viewBox="0 0 24 24">
    <line x1="5" y1="5" x2="5" y2="17" stroke="#c9a96e" stroke-width="1.2" stroke-linecap="round"/>
    <path d="M5 9 Q7 6 10 9" stroke="#c9a96e" stroke-width="1.2" fill="none"/>
    <line x1="10" y1="9" x2="10" y2="17" stroke="#c9a96e" stroke-width="1.2" stroke-linecap="round"/>
    <path d="M10 9 Q13 6 16 9" stroke="#c9a96e" stroke-width="1.2" fill="none"/>
    <line x1="16" y1="9" x2="16" y2="17" stroke="#c9a96e" stroke-width="1.2" stroke-linecap="round"/>
    <path d="M16 17 Q16 21 13 21" stroke="#c9a96e" stroke-width="1.2" fill="none"
      stroke-linecap="round"/>
  </symbol>
  <symbol id="sign-libra" viewBox="0 0 24 24">
    <line x1="4" y1="18" x2="20" y2="18" stroke="#c9a96e" stroke-width="1.2" stroke-linecap="round"/>
    <path d="M7 18 Q7 13 12 10 Q17 13 17 18" stroke="#c9a96e" stroke-width="1.2" fill="none"
      stroke-linecap="round"/>
  </symbol>
  <symbol id="sign-scorpio" viewBox="0 0 24 24">
    <line x1="5" y1="6" x2="5" y2="16" stroke="#c9a96e" stroke-width="1.2" stroke-linecap="round"/>
    <path d="M5 9 Q7 6 10 9" stroke="#c9a96e" stroke-width="1.2" fill="none"/>
    <line x1="10" y1="9" x2="10" y2="16" stroke="#c9a96e" stroke-width="1.2" stroke-linecap="round"/>
    <path d="M10 9 Q13 6 16 9" stroke="#c9a96e" stroke-width="1.2" fill="none"/>
    <line x1="16" y1="9" x2="16" y2="16" stroke="#c9a96e" stroke-width="1.2" stroke-linecap="round"/>
    <path d="M16 16 Q19 16 20 19 L17 18" stroke="#c9a96e" stroke-width="1.2" fill="none"
      stroke-linecap="round" stroke-linejoin="round"/>
  </symbol>
  <symbol id="sign-sagittarius" viewBox="0 0 24 24">
    <line x1="5" y1="19" x2="19" y2="5" stroke="#c9a96e" stroke-width="1.2" stroke-linecap="round"/>
    <polyline points="11,5 19,5 19,13" stroke="#c9a96e" stroke-width="1.2" fill="none"
      stroke-linecap="round" stroke-linejoin="round"/>
  </symbol>
  <symbol id="sign-capricorn" viewBox="0 0 24 24">
    <path d="M5 5 Q8 12 10 16 Q14 12 17 8" stroke="#c9a96e" stroke-width="1.2" fill="none"
      stroke-linecap="round"/>
    <path d="M17 8 Q21 8 21 12 Q21 17 17 17 Q14 17 14 14 Q14 21 11 22"
      stroke="#c9a96e" stroke-width="1.2" fill="none" stroke-linecap="round"/>
  </symbol>
  <symbol id="sign-aquarius" viewBox="0 0 24 24">
    <path d="M4 10 Q7 7 10 10 Q13 13 16 10 Q19 7 22 10"
      stroke="#c9a96e" stroke-width="1.2" fill="none" stroke-linecap="round"/>
    <path d="M4 16 Q7 13 10 16 Q13 19 16 16 Q19 13 22 16"
      stroke="#c9a96e" stroke-width="1.2" fill="none" stroke-linecap="round"/>
  </symbol>
  <symbol id="sign-pisces" viewBox="0 0 24 24">
    <path d="M10 5 Q5 12 10 19" stroke="#c9a96e" stroke-width="1.2" fill="none"
      stroke-linecap="round"/>
    <path d="M14 5 Q19 12 14 19" stroke="#c9a96e" stroke-width="1.2" fill="none"
      stroke-linecap="round"/>
    <line x1="7" y1="12" x2="17" y2="12" stroke="#c9a96e" stroke-width="1.2"
      stroke-linecap="round"/>
  </symbol>
  <symbol id="moon-nouvelle" viewBox="0 0 24 24">
    <circle cx="12" cy="12" r="8" stroke="#c9a96e" stroke-width="1.2" fill="none" opacity="0.5"/>
  </symbol>
  <symbol id="moon-croissant" viewBox="0 0 24 24">
    <circle cx="12" cy="12" r="8" stroke="#c9a96e" stroke-width="0.6" fill="none" opacity="0.3"/>
    <path d="M12 4 A8 8 0 0 1 12 20 A3 8 0 0 0 12 4Z" fill="#c9a96e" fill-opacity="0.85"/>
  </symbol>
  <symbol id="moon-premier-quartier" viewBox="0 0 24 24">
    <circle cx="12" cy="12" r="8" stroke="#c9a96e" stroke-width="0.6" fill="none" opacity="0.3"/>
    <path d="M12 4 A8 8 0 0 1 12 20 Z" fill="#c9a96e" fill-opacity="0.85"/>
  </symbol>
  <symbol id="moon-gibbeuse-crois" viewBox="0 0 24 24">
    <circle cx="12" cy="12" r="8" stroke="#c9a96e" stroke-width="0.6" fill="none" opacity="0.3"/>
    <path d="M12 4 A8 8 0 0 1 12 20 A5 8 0 0 0 12 4Z" fill="#c9a96e" fill-opacity="0.85"/>
  </symbol>
  <symbol id="moon-pleine" viewBox="0 0 24 24">
    <circle cx="12" cy="12" r="8" fill="#c9a96e" fill-opacity="0.85"/>
    <circle cx="12" cy="12" r="8" stroke="#c9a96e" stroke-width="0.6" fill="none"/>
  </symbol>
  <symbol id="moon-gibbeuse-decr" viewBox="0 0 24 24">
    <circle cx="12" cy="12" r="8" stroke="#c9a96e" stroke-width="0.6" fill="none" opacity="0.3"/>
    <path d="M12 4 A8 8 0 0 0 12 20 A5 8 0 0 1 12 4Z" fill="#c9a96e" fill-opacity="0.85"/>
  </symbol>
  <symbol id="moon-dernier-quartier" viewBox="0 0 24 24">
    <circle cx="12" cy="12" r="8" stroke="#c9a96e" stroke-width="0.6" fill="none" opacity="0.3"/>
    <path d="M12 4 A8 8 0 0 0 12 20 Z" fill="#c9a96e" fill-opacity="0.85"/>
  </symbol>
  <symbol id="moon-decroissant" viewBox="0 0 24 24">
    <circle cx="12" cy="12" r="8" stroke="#c9a96e" stroke-width="0.6" fill="none" opacity="0.3"/>
    <path d="M12 4 A8 8 0 0 0 12 20 A3 8 0 0 1 12 4Z" fill="#c9a96e" fill-opacity="0.85"/>
  </symbol>
</svg>
